HIERARCHY
ROOT Hips
{
	OFFSET -0.001795 -0.223333 0.028219
	CHANNELS 6 Xposition Yposition Zposition Zrotation Yrotation Xrotation 
	JOINT LeftUpLeg
	{
		OFFSET 0.069520 -0.091406 -0.006815
		CHANNELS 3 Zrotation Yrotation Xrotation
		JOINT LeftLeg
		{
			OFFSET 0.034277 -0.375199 -0.004496
			CHANNELS 3 Zrotation Yrotation Xrotation
			JOINT LeftFoot
			{
				OFFSET -0.013596 -0.397961 -0.043693
				CHANNELS 3 Zrotation Yrotation Xrotation
				JOINT LeftToe
				{
					OFFSET 0.026358 -0.055791 0.119288
					CHANNELS 3 Zrotation Yrotation Xrotation
					End Site
					{
						OFFSET 0.000000 0.000000 0.000000
					}
				}
			}
		}
	}
	JOINT RightUpLeg
	{
		OFFSET -0.067670 -0.090522 -0.004320
		CHANNELS 3 Zrotation Yrotation Xrotation
		JOINT RightLeg
		{
			OFFSET -0.038290 -0.382569 -0.008850
			CHANNELS 3 Zrotation Yrotation Xrotation
			JOINT RightFoot
			{
				OFFSET 0.015774 -0.398415 -0.042312
				CHANNELS 3 Zrotation Yrotation Xrotation
				JOINT RightToe
				{
					OFFSET -0.025372 -0.048144 0.123348
					CHANNELS 3 Zrotation Yrotation Xrotation
					End Site
					{
						OFFSET 0.000000 0.000000 0.000000
					}
				}
			}
		}
	}
	JOINT Spine
	{
		OFFSET -0.002533 0.108963 -0.026696
		CHANNELS 3 Zrotation Yrotation Xrotation
		JOINT Spine1
		{
			OFFSET 0.005487 0.135180 0.001092
			CHANNELS 3 Zrotation Yrotation Xrotation
			JOINT Spine2
			{
				OFFSET 0.001457 0.052922 0.025425
				CHANNELS 3 Zrotation Yrotation Xrotation
				JOINT Neck
				{
					OFFSET -0.002778 0.213870 -0.042857
					CHANNELS 3 Zrotation Yrotation Xrotation
					JOINT Head
					{
						OFFSET 0.005152 0.064970 0.051349
						CHANNELS 3 Zrotation Yrotation Xrotation
						End Site
						{
							OFFSET 0.000000 0.000000 0.000000
						}
					}
				}
				JOINT LeftShoulder
				{
					OFFSET 0.078845 0.121749 -0.034090
					CHANNELS 3 Zrotation Yrotation Xrotation
					JOINT LeftArm
					{
						OFFSET 0.090977 0.030469 -0.008868
						CHANNELS 3 Zrotation Yrotation Xrotation
						JOINT LeftForeArm
						{
							OFFSET 0.259612 -0.012772 -0.027456
							CHANNELS 3 Zrotation Yrotation Xrotation
							JOINT LeftHand
							{
								OFFSET 0.249234 0.008986 -0.001171
								CHANNELS 3 Zrotation Yrotation Xrotation
								End Site
								{
									OFFSET 0.000000 0.000000 0.000000
								}
							}
						}
					}
				}
				JOINT RightShoulder
				{
					OFFSET -0.081759 0.118833 -0.038615
					CHANNELS 3 Zrotation Yrotation Xrotation
					JOINT RightArm
					{
						OFFSET -0.096012 0.032551 -0.009143
						CHANNELS 3 Zrotation Yrotation Xrotation
						JOINT RightForeArm
						{
							OFFSET -0.253742 -0.013329 -0.021401
							CHANNELS 3 Zrotation Yrotation Xrotation
							JOINT RightHand
							{
								OFFSET -0.255298 0.007772 -0.005559
								CHANNELS 3 Zrotation Yrotation Xrotation
								End Site
								{
									OFFSET 0.000000 0.000000 0.000000
								}
							}
						}
					}
				}
			}
		}
	}
}
MOTION
Frames: 10
Frame Time: 0.050000
0.000000 0.952645 0.000000 -0.973725 -2.295195 1.220357 5.992918 0.132645 4.593060 -1.993547 0.327381 -5.908970 48.556874 31.871496 94.226649 0.000000 0.000000 0.000000 -3.235686 -0.115302 3.083317 2.882796 -0.328387 -2.730724 -7.108444 -18.164084 9.894968 0.000000 0.000000 0.000000 -1.472601 -0.097159 4.148871 4.083140 -0.541223 -22.127785 -0.718148 1.656099 29.052557 -0.098217 1.477336 -22.221381 0.000000 0.000000 0.000000 -26.011963 6.421831 -5.657954 -40.976756 -6.777464 -4.867481 7.389562 -18.707271 -0.197065 0.000000 0.000000 0.000000 17.715900 -1.025988 -1.398592 47.249773 5.009614 -5.184970 -9.221451 20.245465 -0.509975 0.000000 0.000000 0.000000 
-0.000175 0.952111 0.001355 -1.270266 -2.622466 1.438944 6.778411 0.101529 4.680763 -2.855550 0.386741 -6.181788 48.894072 31.938067 94.533927 0.000000 0.000000 0.000000 -2.768733 -0.105263 2.622202 2.601645 -0.299854 -2.413818 -7.125372 -18.216132 9.961990 0.000000 0.000000 0.000000 -1.474974 -0.080686 3.572698 4.386877 -0.659667 -21.624310 -0.835828 2.603840 29.102305 -0.593925 1.966544 -22.968670 0.000000 0.000000 0.000000 -26.912706 7.336079 -6.676136 -43.872411 -7.790848 -4.737527 7.129068 -18.196920 -0.141917 0.000000 0.000000 0.000000 18.820003 -1.254328 -1.413836 50.472151 3.551055 -6.106002 -11.040628 21.800563 -0.761535 0.000000 0.000000 0.000000 
-0.000275 0.951652 0.002725 -0.844050 -2.415474 1.352607 6.657166 0.078601 3.966913 -3.406776 0.410313 -4.707826 48.467789 31.879885 94.182155 0.000000 0.000000 0.000000 -3.560065 -0.095927 3.117806 3.015927 -0.341691 -3.089495 -7.048647 -18.077926 10.191308 0.000000 0.000000 0.000000 -1.234594 -0.087151 3.430087 3.398576 -0.382779 -21.863048 -0.937720 1.959202 29.398684 0.686405 1.011743 -22.201109 0.000000 0.000000 0.000000 -26.916586 6.463449 -5.911152 -46.236488 -5.990800 -5.654917 6.390541 -19.460402 0.006231 0.000000 0.000000 0.000000 19.514451 -0.759450 -1.329245 53.005498 2.172628 -6.907361 -9.025408 22.449555 -0.464619 0.000000 0.000000 0.000000 
-0.000399 0.951200 0.004320 -0.800893 -2.699667 1.212975 6.925812 0.094565 4.496160 -4.005311 0.458099 -5.088837 48.608388 31.927289 94.341878 0.000000 0.000000 0.000000 -3.508207 -0.121293 3.488196 2.962711 -0.336519 -3.146337 -7.026309 -18.004174 9.601060 0.000000 0.000000 0.000000 -1.570663 -0.065684 3.155367 3.664260 -0.454546 -21.911445 -0.964430 1.747192 29.908983 0.476220 1.072914 -22.169589 0.000000 0.000000 0.000000 -28.575722 7.397449 -6.683095 -47.355666 -5.508797 -5.997853 4.005502 -19.194854 0.414885 0.000000 0.000000 0.000000 20.045000 -0.119666 -1.097994 54.300797 0.923125 -7.639168 -7.049135 23.316295 -0.147066 0.000000 0.000000 0.000000 
-0.000456 0.951452 0.005732 -0.729855 -2.131893 1.069319 6.956471 0.086516 4.610623 -4.067961 0.456908 -5.039598 48.319736 31.896815 93.796975 0.000000 0.000000 0.000000 -3.387698 -0.165690 3.923177 2.395047 -0.307742 -3.609127 -7.024728 -18.031541 10.382537 0.000000 0.000000 0.000000 -1.844236 -0.059203 3.304962 3.981564 -0.519730 -22.006323 -1.092594 1.440627 29.492066 0.547364 0.998079 -21.530870 0.000000 0.000000 0.000000 -29.006007 7.184750 -6.659757 -49.068948 -4.523327 -6.499152 2.451028 -20.087592 0.702168 0.000000 0.000000 0.000000 20.099972 -0.172360 -1.129104 56.275509 -0.150986 -8.312134 -5.378252 23.168487 0.159588 0.000000 0.000000 0.000000 
-0.000385 0.951565 0.006736 -0.663094 -1.941515 1.048980 6.893104 0.081748 4.495184 -4.054186 0.454209 -4.750705 48.096599 31.859203 93.582394 0.000000 0.000000 0.000000 -3.673099 -0.160027 4.086231 2.434664 -0.310688 -3.564488 -6.634679 -17.297641 10.277378 0.000000 0.000000 0.000000 -2.111856 -0.043159 3.074036 4.061802 -0.536229 -22.009981 -0.984299 0.859190 29.689657 0.356307 1.053663 -21.813531 0.000000 0.000000 0.000000 -29.192270 7.387284 -6.649199 -50.327303 -4.026870 -6.902069 0.156011 -20.702007 1.154142 0.000000 0.000000 0.000000 19.819226 0.208300 -1.012263 57.579326 -0.487141 -8.648442 -2.994212 23.316875 0.571646 0.000000 0.000000 0.000000 
-0.000219 0.951469 0.007222 -0.631955 -1.817058 0.878574 6.946827 0.086568 4.712981 -4.195289 0.463409 -4.787868 48.093960 31.874172 93.447887 0.000000 0.000000 0.000000 -3.527091 -0.179846 4.195906 2.291010 -0.299361 -3.447676 -6.950639 -17.878601 10.379025 0.000000 0.000000 0.000000 -2.261251 -0.039563 3.125986 4.327359 -0.625462 -21.674701 -1.115836 0.503079 29.251052 0.081158 1.185378 -21.788660 0.000000 0.000000 0.000000 -29.566930 6.964001 -6.328368 -50.851499 -3.652651 -7.107269 -1.118902 -21.250300 1.425509 0.000000 0.000000 0.000000 19.822974 1.021031 -0.645552 58.061415 -0.862506 -8.834525 -2.094593 23.407269 0.715948 0.000000 0.000000 0.000000 
-0.000054 0.951374 0.007423 -0.693929 -1.866164 0.865205 6.934619 0.083260 4.561802 -4.083479 0.456081 -4.453370 48.066524 31.861823 93.487630 0.000000 0.000000 0.000000 -3.494522 -0.166556 3.970314 2.388172 -0.296417 -2.906858 -6.981602 -17.916809 10.053919 0.000000 0.000000 0.000000 -2.234295 -0.038167 3.001647 4.374287 -0.638928 -21.676188 -1.014153 0.522783 29.487354 0.140575 1.142648 -21.765274 0.000000 0.000000 0.000000 -29.789422 6.314577 -5.894149 -50.978309 -3.845995 -7.082424 -2.314772 -21.572038 1.669163 0.000000 0.000000 0.000000 19.887897 1.240226 -0.521344 58.198721 -0.630969 -8.769335 -1.036907 23.225260 0.900386 0.000000 0.000000 0.000000 
0.000042 0.951341 0.007445 -0.779234 -1.981400 0.843824 7.104366 0.078576 4.580254 -4.250290 0.469920 -4.398004 48.102957 31.867836 93.569666 0.000000 0.000000 0.000000 -3.455353 -0.173031 4.044995 2.516795 -0.305887 -2.928319 -6.948443 -17.848748 9.878345 0.000000 0.000000 0.000000 -2.244268 -0.036159 2.912466 4.578122 -0.715612 -21.385442 -0.989329 0.554786 29.223112 -0.005291 1.221462 -21.520318 0.000000 0.000000 0.000000 -29.874828 5.994937 -5.681435 -51.057230 -4.099446 -6.967559 -3.440590 -22.065372 1.920782 0.000000 0.000000 0.000000 19.845283 1.648008 -0.313969 57.944856 -0.755787 -8.755432 -0.302444 23.124583 1.012992 0.000000 0.000000 0.000000 
-0.000043 0.951216 0.007325 -0.801561 -2.202975 0.911396 7.063212 0.084990 4.595489 -4.175829 0.466193 -4.494416 48.199796 31.877688 93.775100 0.000000 0.000000 0.000000 -3.526150 -0.170714 4.127809 2.735260 -0.321376 -2.958333 -6.783853 -17.508536 9.285390 0.000000 0.000000 0.000000 -2.242610 -0.029404 2.618225 4.572111 -0.738250 -21.094302 -0.883552 0.763465 29.247192 -0.032316 1.249566 -21.440538 0.000000 0.000000 0.000000 -30.126594 5.334150 -5.291436 -50.617277 -4.367302 -6.808031 -4.485755 -22.572300 2.159814 0.000000 0.000000 0.000000 20.118637 2.244419 0.020004 57.651217 -0.535726 -8.609763 0.106983 23.081589 1.078991 0.000000 0.000000 0.000000 
